<svg xmlns="http://www.w3.org/2000/svg" viewBox="0 0 512 152.23"><path d="M102.3,43.23,66,109H30.4L64,46.53A26.5,26.5,0,0,1,85,32.73a26.24,26.24,0,0,1,22.1,8.8l-13.6,11A12.21,12.21,0,0,0,85,46.73,12.38,12.38,0,0,0,76.1,51l-4-7.7ZM149,119.23V58h-14V46.73h40.4V58h-14v61.2Z" fill="#000"/><path d="M228,119.23V79.43c0-11.5,1.7-20.3,5.1-26.3,3.4-6,8.7-8.9,15.8-8.9,7.1,0,12.4,2.9,15.8,8.8,3.4,5.9,5.1,14.7,5.1,26.3v39.8h12.5V78.73c0-13.4-2.5-23.7-7.4-30.8s-12.3-10.7-22.1-10.7-17.2,3.6-22.1,10.8-7.4,17.4-7.4,30.7v40.5Z" fill="#000"/><path d="M331.4,119.23l-19-35.1-19,35.1H281L310.2,74l-27-37.3h14.7l19,34.1,19-34.1h14.8L321,74l29.2,45.2Z" fill="#000"/><path d="M410.7,119.23V46.73h12.4v72.5Z" fill="#000"/><path d="M439,78.73a39.11,39.11,0,0,1,39.7-39.2c21.8,0,39.6,17.6,39.6,39.2s-17.8,39.1-39.6,39.1A39.11,39.11,0,0,1,439,78.73Zm66.8,0c0-14.8-12-26.7-27.1-26.7s-27.1,11.9-27.1,26.7,12,26.7,27.1,26.7S505.8,93.53,505.8,78.73Z" fill="#000"/><path d="M110.1,91.33a54.51,54.51,0,0,0,105.4,16.8,55.33,55.33,0,0,0,11.1-34.8c0-30.6-25-55.5-55.5-55.5a54.84,54.84,0,0,0-54.8,47.3,54.5,54.5,0,0,0-6.2,26.2Z" fill="transparent"/><path d="M152.1.23a75.74,75.74,0,0,0-50.7,19.2,76,76,0,0,0-15.9,109.3,76.5,76.5,0,0,0,103.5,23.3A76.13,76.13,0,0,0,214.7,46a75.63,75.63,0,0,0-62.6-45.7Z" fill="transparent"/><path d="M151.7,117.83a37.26,37.26,0,0,1-37.2-37.2c0-20.6,16.6-37.2,37.2-37.2s37.2,16.6,37.2,37.2A37.26,37.26,0,0,1,151.7,117.83Z" fill="#ff9900"/></svg>