<svg xmlns="http://www.w3.org/2000/svg" viewBox="0 0 300 45.92"><path d="M12.7,24.11a5.06,5.06,0,0,1,0-7.15L15.9,13.77a9.38,9.38,0,0,0,0,13.28Z" fill="#fbbc05"/><path d="M6.35,30.46a5.06,5.06,0,0,1,0-7.15L9.54,20.12a9.38,9.38,0,0,0,0,13.28Z" fill="#ea4335"/><path d="M30.46,12.7a5.06,5.06,0,0,1,7.15,0l3.19,3.19a9.38,9.38,0,0,0-13.28,0Z" fill="#4285f4"/><path d="M30.46,36.81a5.06,5.06,0,0,1,7.15,0l3.19,3.19a9.38,9.38,0,0,0-13.28,0Z" fill="#34a853"/><path d="M51.3,27.18V22.3h9.61c.11.6.17,1.22.17,1.88,0,5.7-3.83,9.79-9.78,9.79a10.22,10.22,0,0,1,0-20.44,9.88,9.88,0,0,1,7.2,2.83l-3,3a5.88,5.88,0,0,0-4.17-1.7,6.1,6.1,0,0,0,0,12.19,5.72,5.72,0,0,0,4.48-1.92h-4.3Z" fill="#4a4a4a"/><path d="M78.6,33.88a10.22,10.22,0,0,1,0-20.44,10.12,10.12,0,0,1,10.2,10.22,10.12,10.12,0,0,1-10.2,10.22Zm0-16.51a6.1,6.1,0,0,0,0,12.19,6.1,6.1,0,0,0,0-12.19Z" fill="#4a4a4a"/><path d="M102,33.88a10.22,10.22,0,0,1,0-20.44,10.12,10.12,0,0,1,10.2,10.22,10.12,10.12,0,0,1-10.2,10.22Zm0-16.51a6.1,6.1,0,0,0,0,12.19,6.1,6.1,0,0,0,0-12.19Z" fill="#4a4a4a"/><path d="M124.4,13.8V33.45H120.57V13.8Z" fill="#4a4a4a"/><path d="M141.44,23.68a9.49,9.49,0,0,1-4.48,4.35,11.2,11.2,0,0,1-6.17,1.85,10.21,10.21,0,0,1,0-20.42,10.35,10.35,0,0,1,7.84,3.48l-2.71,2.8a6.3,6.3,0,0,0-5.13-2.31,6.1,6.1,0,1,0,5.82,8.37A5.43,5.43,0,0,0,141.44,23.68Z" fill="#4a4a4a"/><path d="M152.17,33.88a10.22,10.22,0,0,1-10.21-10.22A10.13,10.13,0,0,1,152.17,13.44a10.22,10.22,0,0,1,0,20.44Zm-6.31-10.22a6.1,6.1,0,0,0,6.31,6.1,6.1,6.1,0,0,0,6.3-6.1,6.1,6.1,0,0,0-6.3-6.1A6.1,6.1,0,0,0,145.86,23.66Z" fill="#4a4a4a"/><path d="M174.45,28.09l-4-4.59V33.45H166.6V13.8h3.83l3.87,4.44V13.8h3.83V33.45h-3.68Z" fill="#4a4a4a"/><path d="M188,33.88a10,10,0,0,1-7.85-3.66l2.87-2.67a5.94,5.94,0,0,0,5-2.28,6.12,6.12,0,0,0,0-6.12,6.1,6.1,0,0,0-10.12,0,6.12,6.12,0,0,0,0,6.12,5.94,5.94,0,0,0,5,2.28l2.87,2.67A10,10,0,0,1,188,33.88Z" fill="#4a4a4a"/><rect x="207.39" y="19.16" width="3.83" height="14.29" fill="#4a4a4a"/><rect x="207.39" y="13.79" width="3.83" height="3.83" fill="#4a4a4a"/><path d="M222.18,28.66,215.34,13.8h4.06l4.28,10,4.27-10h4.07l-6.83,14.86Z" fill="#4a4a4a"/><path d="M246.33,23.66a6.1,6.1,0,1,0,0-12.19,6.1,6.1,0,1,0,0,12.19Z" fill="#4a4a4a"/><path d="M280.93,13.8h3.83V24.5a9.23,9.23,0,0,0,5.39-1.63V13.8h3.83V33.45h-3.83V22.25a9.23,9.23,0,0,0-5.39,1.63V33.45h-3.83Z" fill="#4a4a4a"/><path d="M294.6,33.45V13.8h4V33.45Z" fill="#4a4a4a"/></svg>